<mxfile host="app.diagrams.net" modified="2022-05-11T05:51:01.954Z" agent="5.0 (Windows NT 10.0; Win64; x64) AppleWebKit/537.36 (KHTML, like Gecko) Chrome/100.0.4896.75 Safari/537.36" etag="XFtMIFde9YT81K8mUuw0" version="17.1.2" type="github">
  <diagram name="Page-1" id="822b0af5-4adb-64df-f703-e8dfc1f81529">
    <mxGraphModel dx="1237" dy="663" grid="0" gridSize="10" guides="1" tooltips="1" connect="1" arrows="1" fold="1" page="1" pageScale="1" pageWidth="1100" pageHeight="850" background="none" math="0" shadow="0">
      <root>
        <mxCell id="0" />
        <mxCell id="1" parent="0" />
        <mxCell id="sdRGqh7qMVpx464kKu6B-10" style="edgeStyle=orthogonalEdgeStyle;rounded=0;orthogonalLoop=1;jettySize=auto;html=1;" edge="1" parent="1" source="sdRGqh7qMVpx464kKu6B-2" target="sdRGqh7qMVpx464kKu6B-3">
          <mxGeometry relative="1" as="geometry" />
        </mxCell>
        <mxCell id="sdRGqh7qMVpx464kKu6B-2" value="internet" style="verticalLabelPosition=bottom;sketch=0;aspect=fixed;html=1;verticalAlign=top;strokeColor=none;align=center;outlineConnect=0;shape=mxgraph.citrix.cloud;" vertex="1" parent="1">
          <mxGeometry x="397.5" y="99" width="95" height="62" as="geometry" />
        </mxCell>
        <mxCell id="sdRGqh7qMVpx464kKu6B-7" style="edgeStyle=orthogonalEdgeStyle;rounded=0;orthogonalLoop=1;jettySize=auto;html=1;" edge="1" parent="1" source="sdRGqh7qMVpx464kKu6B-3" target="sdRGqh7qMVpx464kKu6B-5">
          <mxGeometry relative="1" as="geometry">
            <Array as="points">
              <mxPoint x="455" y="320" />
              <mxPoint x="455" y="320" />
            </Array>
          </mxGeometry>
        </mxCell>
        <mxCell id="sdRGqh7qMVpx464kKu6B-16" style="edgeStyle=orthogonalEdgeStyle;rounded=0;orthogonalLoop=1;jettySize=auto;html=1;" edge="1" parent="1" source="sdRGqh7qMVpx464kKu6B-3" target="sdRGqh7qMVpx464kKu6B-14">
          <mxGeometry relative="1" as="geometry" />
        </mxCell>
        <mxCell id="sdRGqh7qMVpx464kKu6B-18" style="edgeStyle=orthogonalEdgeStyle;rounded=0;orthogonalLoop=1;jettySize=auto;html=1;" edge="1" parent="1" source="sdRGqh7qMVpx464kKu6B-3" target="sdRGqh7qMVpx464kKu6B-12">
          <mxGeometry relative="1" as="geometry" />
        </mxCell>
        <mxCell id="sdRGqh7qMVpx464kKu6B-3" value="router" style="verticalLabelPosition=bottom;sketch=0;aspect=fixed;html=1;verticalAlign=top;strokeColor=none;align=center;outlineConnect=0;shape=mxgraph.citrix.netscaler_gateway;" vertex="1" parent="1">
          <mxGeometry x="395" y="234" width="100" height="39" as="geometry" />
        </mxCell>
        <mxCell id="sdRGqh7qMVpx464kKu6B-4" value="docentes" style="verticalLabelPosition=bottom;sketch=0;aspect=fixed;html=1;verticalAlign=top;strokeColor=none;align=center;outlineConnect=0;shape=mxgraph.citrix.role_repeater;fillColor=#CCCCCC;gradientColor=#000000;gradientDirection=south;" vertex="1" parent="1">
          <mxGeometry x="284.41" y="432" width="38" height="38" as="geometry" />
        </mxCell>
        <mxCell id="sdRGqh7qMVpx464kKu6B-5" value="administrativos" style="verticalLabelPosition=bottom;sketch=0;aspect=fixed;html=1;verticalAlign=top;strokeColor=none;align=center;outlineConnect=0;shape=mxgraph.citrix.role_repeater;fillColor=#CCCCCC;gradientColor=#000000;gradientDirection=south;" vertex="1" parent="1">
          <mxGeometry x="440" y="432" width="38" height="38" as="geometry" />
        </mxCell>
        <mxCell id="sdRGqh7qMVpx464kKu6B-6" value="centro de computo" style="verticalLabelPosition=bottom;sketch=0;aspect=fixed;html=1;verticalAlign=top;strokeColor=none;align=center;outlineConnect=0;shape=mxgraph.citrix.role_repeater;fillColor=#CCCCCC;gradientColor=#000000;gradientDirection=south;" vertex="1" parent="1">
          <mxGeometry x="583" y="432" width="38" height="38" as="geometry" />
        </mxCell>
        <mxCell id="sdRGqh7qMVpx464kKu6B-19" style="edgeStyle=orthogonalEdgeStyle;rounded=0;orthogonalLoop=1;jettySize=auto;html=1;" edge="1" parent="1" source="sdRGqh7qMVpx464kKu6B-12" target="sdRGqh7qMVpx464kKu6B-4">
          <mxGeometry relative="1" as="geometry" />
        </mxCell>
        <mxCell id="sdRGqh7qMVpx464kKu6B-12" value="bloque de paginas" style="verticalLabelPosition=bottom;sketch=0;aspect=fixed;html=1;verticalAlign=top;strokeColor=none;align=center;outlineConnect=0;shape=mxgraph.citrix.firewall;" vertex="1" parent="1">
          <mxGeometry x="278" y="314" width="50.81" height="63" as="geometry" />
        </mxCell>
        <mxCell id="sdRGqh7qMVpx464kKu6B-17" style="edgeStyle=orthogonalEdgeStyle;rounded=0;orthogonalLoop=1;jettySize=auto;html=1;" edge="1" parent="1" source="sdRGqh7qMVpx464kKu6B-14" target="sdRGqh7qMVpx464kKu6B-6">
          <mxGeometry relative="1" as="geometry" />
        </mxCell>
        <mxCell id="sdRGqh7qMVpx464kKu6B-14" value="bloqueo de paginas&amp;nbsp;" style="verticalLabelPosition=bottom;sketch=0;aspect=fixed;html=1;verticalAlign=top;strokeColor=none;align=center;outlineConnect=0;shape=mxgraph.citrix.firewall;" vertex="1" parent="1">
          <mxGeometry x="576.6" y="330" width="50.81" height="63" as="geometry" />
        </mxCell>
        <mxCell id="sdRGqh7qMVpx464kKu6B-20" value="" style="verticalLabelPosition=bottom;sketch=0;aspect=fixed;html=1;verticalAlign=top;strokeColor=none;align=center;outlineConnect=0;shape=mxgraph.citrix.users;" vertex="1" parent="1">
          <mxGeometry x="274.99999999999994" y="500" width="64.5" height="55" as="geometry" />
        </mxCell>
        <mxCell id="sdRGqh7qMVpx464kKu6B-21" value="" style="verticalLabelPosition=bottom;sketch=0;aspect=fixed;html=1;verticalAlign=top;strokeColor=none;align=center;outlineConnect=0;shape=mxgraph.citrix.users;" vertex="1" parent="1">
          <mxGeometry x="424" y="505" width="64.5" height="55" as="geometry" />
        </mxCell>
        <mxCell id="sdRGqh7qMVpx464kKu6B-22" value="" style="verticalLabelPosition=bottom;sketch=0;aspect=fixed;html=1;verticalAlign=top;strokeColor=none;align=center;outlineConnect=0;shape=mxgraph.citrix.users;" vertex="1" parent="1">
          <mxGeometry x="576.6" y="500" width="64.5" height="55" as="geometry" />
        </mxCell>
      </root>
    </mxGraphModel>
  </diagram>
</mxfile>
